<?xml version="1.0"?>
<svg version="1.1" xmlns="http://www.w3.org/2000/svg" width="400" height="200" style="border: dashed 2px #aaa"><path fill="#9147ff" d="M15.96,114.4l0-2.04l1.8-0.72l0-11.28l-1.8-0.72l0-2.04l7.32-0.12l0,2.16l-1.8,0.72l0,11.28l1.8,0.72l0,2.04l-7.32,0z M38.55624,102.64l-0.6-2.064s-1.128-0.384-2.712-0.384c-2.568,0-4.008,1.872-4.008,5.88c0,3.888,1.512,5.568,4.08,5.568c1.248,0,2.64-0.432,2.64-0.432l0-3.024l-1.8-0.552l0-1.968l6.912-0.12l0,2.088l-1.632,0.552l0,4.896s-2.472,1.608-6.528,1.608c-4.872,0-7.68-2.928-7.68-8.496c0-5.64,3.168-9,8.088-9c2.904,0,5.592,1.128,5.592,1.128l-0.12,4.32l-2.232,0z M48.33648,111.64l0-11.28l-1.8-0.72l0-2.04l5.52-0.12l2.28,0c4.8,0,7.632,2.832,7.632,8.232s-3.12,8.688-7.992,8.688l-7.44,0l0-2.04z M52.05648,111.52l1.992,0c2.328,0,3.888-1.368,3.888-5.688c0-4.032-1.368-5.472-3.72-5.472l-2.16,0l0,11.16z M71.19672,97.48l2.52,0c3.12,0,5.28,1.32,5.28,4.152c0,2.088-0.984,3.36-2.88,3.96c2.256,0.648,3.432,1.992,3.432,3.84c0,3.528-2.352,4.968-6.24,4.968l-7.632,0l0-2.04l1.8-0.72l0-11.28l-1.8-0.72l0-2.04z M71.19672,104.392l1.392,0c1.752,0,2.688-0.744,2.688-2.232c0-1.248-0.888-1.8-2.04-1.8l-2.04,0l0,4.032z M71.19672,111.52l1.992,0c1.68,0,2.568-0.768,2.568-2.088c0-1.752-1.008-2.52-3.168-2.52l-1.392,0l0,4.608z"/><path fill="#" d=""/></svg>
